{
  "accessors": [
    {
      "bufferView": 2,
      "componentType": 5126,
      "count": 1613,
      "max": [
        4.7878923416137695,
        2.289982795715332,
        5.343173980712891
      ],
      "min": [
        -5.441675662994385,
        -2.1070470809936523,
        -5.566407203674316
      ],
      "type": "VEC3"
    },
    {
      "bufferView": 2,
      "byteOffset": 19356,
      "componentType": 5126,
      "count": 1613,
      "max": [
        0.9368444085121155,
        0.9995347261428833,
        0.9395102858543396
      ],
      "min": [
        -0.8105013966560364,
        -0.9940069317817688,
        -0.9317392706871033
      ],
      "type": "VEC3"
    },
    {
      "bufferView": 3,
      "componentType": 5126,
      "count": 1613,
      "max": [
        0.9912987947463989,
        0.9984022378921509,
        0.9999933838844299,
        1.0
      ],
      "min": [
        -0.973827600479126,
        -0.9274044632911682,
        -0.9995956420898438,
        1.0
      ],
      "type": "VEC4"
    },
    {
      "bufferView": 1,
      "componentType": 5126,
      "count": 1613,
      "max": [
        0.999019980430603,
        0.828029990196228
      ],
      "min": [
        0.0009699999936856329,
        0.0009699999936856329
      ],
      "type": "VEC2"
    },
    {
      "bufferView": 0,
      "componentType": 5125,
      "count": 9378,
      "type": "SCALAR"
    }
  ],
  "asset": {
    "extras": {
      "author": "luardimensi (https://sketchfab.com/luardimensi)",
      "license": "CC-BY-4.0 (http://creativecommons.org/licenses/by/4.0/)",
      "source": "https://sketchfab.com/3d-models/low-poly-dbkl-road-manhole-03a0257acaef42e786853d55ca9ebd66",
      "title": "Low Poly DBKL Road Manhole"
    },
    "generator": "Sketchfab-12.68.0",
    "version": "2.0"
  },
  "bufferViews": [
    {
      "buffer": 0,
      "byteLength": 37512,
      "name": "floatBufferViews",
      "target": 34963
    },
    {
      "buffer": 0,
      "byteLength": 12904,
      "byteOffset": 37512,
      "byteStride": 8,
      "name": "floatBufferViews",
      "target": 34962
    },
    {
      "buffer": 0,
      "byteLength": 38712,
      "byteOffset": 50416,
      "byteStride": 12,
      "name": "floatBufferViews",
      "target": 34962
    },
    {
      "buffer": 0,
      "byteLength": 25808,
      "byteOffset": 89128,
      "byteStride": 16,
      "name": "floatBufferViews",
      "target": 34962
    }
  ],
  "buffers": [
    {
      "byteLength": 114936,
      "uri": "scene.bin"
    }
  ],
  "images": [
    {
      "uri": "textures/Manhole_LOW_baseColor.png"
    },
    {
      "uri": "textures/Manhole_LOW_metallicRoughness.png"
    },
    {
      "uri": "textures/Manhole_LOW_normal.png"
    }
  ],
  "materials": [
    {
      "doubleSided": true,
      "name": "Manhole_LOW",
      "normalTexture": {
        "index": 2
      },
      "occlusionTexture": {
        "index": 1
      },
      "pbrMetallicRoughness": {
        "baseColorTexture": {
          "index": 0
        },
        "metallicFactor": 0.24444350958278552,
        "metallicRoughnessTexture": {
          "index": 1
        }
      }
    }
  ],
  "meshes": [
    {
      "name": "Object_0",
      "primitives": [
        {
          "attributes": {
            "NORMAL": 1,
            "POSITION": 0,
            "TANGENT": 2,
            "TEXCOORD_0": 3
          },
          "indices": 4,
          "material": 0,
          "mode": 4
        }
      ]
    }
  ],
  "nodes": [
    {
      "children": [
        1
      ],
      "matrix": [
        1.0,
        0.0,
        0.0,
        0.0,
        0.0,
        2.220446049250313e-16,
        -1.0,
        0.0,
        0.0,
        1.0,
        2.220446049250313e-16,
        0.0,
        0.0,
        0.0,
        0.0,
        1.0
      ],
      "name": "Sketchfab_model"
    },
    {
      "children": [
        2
      ],
      "name": "root"
    },
    {
      "children": [
        3
      ],
      "matrix": [
        1.0,
        0.0,
        0.0,
        0.0,
        0.0,
        2.220446049250313e-16,
        1.0,
        0.0,
        0.0,
        -1.0,
        2.220446049250313e-16,
        0.0,
        0.0,
        0.0,
        0.0,
        1.0
      ],
      "name": "GLTF_SceneRootNode"
    },
    {
      "children": [
        4
      ],
      "matrix": [
        0.9195300925298793,
        -0.39301960375023465,
        1.3959333126055407e-08,
        0.0,
        0.39273850744599276,
        0.9188724256340834,
        0.03781441760003416,
        0.0,
        -0.014861820248057614,
        -0.034771489432355245,
        0.999284779140346,
        0.0,
        0.05090770125389099,
        -0.1244664192199707,
        -0.026468753814697266,
        1.0
      ],
      "name": "Manhole_1"
    },
    {
      "mesh": 0,
      "name": "Object_4"
    }
  ],
  "samplers": [
    {
      "magFilter": 9729,
      "minFilter": 9987,
      "wrapS": 10497,
      "wrapT": 10497
    }
  ],
  "scene": 0,
  "scenes": [
    {
      "name": "Sketchfab_Scene",
      "nodes": [
        0
      ]
    }
  ],
  "textures": [
    {
      "sampler": 0,
      "source": 0
    },
    {
      "sampler": 0,
      "source": 1
    },
    {
      "sampler": 0,
      "source": 2
    }
  ]
}
