{
  "accessors": [
    {
      "bufferView": 2,
      "componentType": 5126,
      "count": 280,
      "max": [
        0.7729737758636475,
        0.7729737758636475,
        2.200681447982788
      ],
      "min": [
        -0.8033856153488159,
        -0.7755526900291443,
        -0.13161975145339966
      ],
      "type": "VEC3"
    },
    {
      "bufferView": 2,
      "byteOffset": 3360,
      "componentType": 5126,
      "count": 280,
      "max": [
        0.8472596406936646,
        0.9209473133087158,
        0.5826242566108704
      ],
      "min": [
        -0.9110597968101501,
        -0.9237059354782104,
        -0.9246882796287537
      ],
      "type": "VEC3"
    },
    {
      "bufferView": 1,
      "componentType": 5126,
      "count": 280,
      "max": [
        0.9828431010246277,
        0.9491262435913086
      ],
      "min": [
        0.4093955457210541,
        0.06345239281654358
      ],
      "type": "VEC2"
    },
    {
      "bufferView": 0,
      "componentType": 5125,
      "count": 480,
      "type": "SCALAR"
    },
    {
      "bufferView": 2,
      "byteOffset": 6720,
      "componentType": 5126,
      "count": 48,
      "max": [
        0.8981925845146179,
        0.8981925845146179,
        7.854226112365723
      ],
      "min": [
        -0.8981925845146179,
        -0.8981925845146179,
        0.0
      ],
      "type": "VEC3"
    },
    {
      "bufferView": 2,
      "byteOffset": 7296,
      "componentType": 5126,
      "count": 48,
      "max": [
        0.9238355755805969,
        0.9238354563713074,
        0.05656280368566513
      ],
      "min": [
        -0.9238355755805969,
        -0.9238354563713074,
        -0.03727979585528374
      ],
      "type": "VEC3"
    },
    {
      "bufferView": 1,
      "byteOffset": 2240,
      "componentType": 5126,
      "count": 48,
      "max": [
        0.3922949433326721,
        0.7501598000526428
      ],
      "min": [
        0.04363983869552612,
        0.2238444685935974
      ],
      "type": "VEC2"
    },
    {
      "bufferView": 0,
      "byteOffset": 1920,
      "componentType": 5125,
      "count": 96,
      "type": "SCALAR"
    },
    {
      "bufferView": 2,
      "byteOffset": 7872,
      "componentType": 5126,
      "count": 568,
      "max": [
        0.7729737758636475,
        0.7729737758636475,
        3.2023420333862305
      ],
      "min": [
        -0.8033856153488159,
        -0.7755526900291443,
        0.05220299959182739
      ],
      "type": "VEC3"
    },
    {
      "bufferView": 2,
      "byteOffset": 14688,
      "componentType": 5126,
      "count": 568,
      "max": [
        0.8692934513092041,
        0.9461342096328735,
        0.5466195940971375
      ],
      "min": [
        -0.9452497363090515,
        -0.9437245726585388,
        -0.8963760733604431
      ],
      "type": "VEC3"
    },
    {
      "bufferView": 1,
      "byteOffset": 2624,
      "componentType": 5126,
      "count": 568,
      "max": [
        0.9828431010246277,
        0.9491262435913086
      ],
      "min": [
        0.4093955457210541,
        0.06345239281654358
      ],
      "type": "VEC2"
    },
    {
      "bufferView": 0,
      "byteOffset": 2304,
      "componentType": 5125,
      "count": 960,
      "type": "SCALAR"
    },
    {
      "bufferView": 2,
      "byteOffset": 21504,
      "componentType": 5126,
      "count": 48,
      "max": [
        0.8981925845146179,
        0.8981925845146179,
        10.551948547363281
      ],
      "min": [
        -0.8981925845146179,
        -0.8981925845146179,
        -0.056416988372802734
      ],
      "type": "VEC3"
    },
    {
      "bufferView": 2,
      "byteOffset": 22080,
      "componentType": 5126,
      "count": 48,
      "max": [
        0.9238555431365967,
        0.9238555431365967,
        0.041908279061317444
      ],
      "min": [
        -0.9238555431365967,
        -0.9238555431365967,
        -0.02760990709066391
      ],
      "type": "VEC3"
    },
    {
      "bufferView": 1,
      "byteOffset": 7168,
      "componentType": 5126,
      "count": 48,
      "max": [
        0.3922949433326721,
        0.7501598000526428
      ],
      "min": [
        0.04363983869552612,
        0.2238444685935974
      ],
      "type": "VEC2"
    },
    {
      "bufferView": 0,
      "byteOffset": 6144,
      "componentType": 5125,
      "count": 96,
      "type": "SCALAR"
    },
    {
      "bufferView": 2,
      "byteOffset": 22656,
      "componentType": 5126,
      "count": 214,
      "max": [
        0.5482792258262634,
        0.6708369851112366,
        1.6259832382202148
      ],
      "min": [
        -0.5714854001998901,
        -0.7253483533859253,
        -0.2885656952857971
      ],
      "type": "VEC3"
    },
    {
      "bufferView": 2,
      "byteOffset": 25224,
      "componentType": 5126,
      "count": 214,
      "max": [
        0.8866923451423645,
        0.788221001625061,
        0.5929937362670898
      ],
      "min": [
        -0.896901547908783,
        -0.766347348690033,
        -0.9490914344787598
      ],
      "type": "VEC3"
    },
    {
      "bufferView": 1,
      "byteOffset": 7552,
      "componentType": 5126,
      "count": 214,
      "max": [
        0.9952443242073059,
        0.7727102041244507
      ],
      "min": [
        0.39199018478393555,
        0.042963385581970215
      ],
      "type": "VEC2"
    },
    {
      "bufferView": 0,
      "byteOffset": 6528,
      "componentType": 5125,
      "count": 384,
      "type": "SCALAR"
    },
    {
      "bufferView": 2,
      "byteOffset": 27792,
      "componentType": 5126,
      "count": 48,
      "max": [
        0.8833184838294983,
        0.8833184838294983,
        7.141205310821533
      ],
      "min": [
        -0.8833184838294983,
        -0.8833184838294983,
        0.04189994931221008
      ],
      "type": "VEC3"
    },
    {
      "bufferView": 2,
      "byteOffset": 28368,
      "componentType": 5126,
      "count": 48,
      "max": [
        0.9238777756690979,
        0.9238776564598083,
        0.08413255959749222
      ],
      "min": [
        -0.9238776564598083,
        -0.9238776564598083,
        -0.08808929473161697
      ],
      "type": "VEC3"
    },
    {
      "bufferView": 1,
      "byteOffset": 9264,
      "componentType": 5126,
      "count": 48,
      "max": [
        0.3857121765613556,
        0.7676769495010376
      ],
      "min": [
        0.01893475651741028,
        0.21400494873523712
      ],
      "type": "VEC2"
    },
    {
      "bufferView": 0,
      "byteOffset": 8064,
      "componentType": 5125,
      "count": 96,
      "type": "SCALAR"
    }
  ],
  "asset": {
    "extras": {
      "author": "Henry_Frean (https://sketchfab.com/Henry_Frean)",
      "license": "CC-BY-4.0 (http://creativecommons.org/licenses/by/4.0/)",
      "source": "https://sketchfab.com/3d-models/pinos-d70dae13d0db43b88cb4fd5d1239c59c",
      "title": "Pinos"
    },
    "generator": "Sketchfab-12.67.0",
    "version": "2.0"
  },
  "bufferViews": [
    {
      "buffer": 0,
      "byteLength": 8448,
      "name": "floatBufferViews",
      "target": 34963
    },
    {
      "buffer": 0,
      "byteLength": 9648,
      "byteOffset": 8448,
      "byteStride": 8,
      "name": "floatBufferViews",
      "target": 34962
    },
    {
      "buffer": 0,
      "byteLength": 28944,
      "byteOffset": 18096,
      "byteStride": 12,
      "name": "floatBufferViews",
      "target": 34962
    }
  ],
  "buffers": [
    {
      "byteLength": 47040,
      "uri": "scene.bin"
    }
  ],
  "materials": [
    {
      "doubleSided": true,
      "name": "Ramas",
      "pbrMetallicRoughness": {
        "baseColorFactor": [
          0.00903831,
          0.226583,
          0.00165806,
          1.0
        ],
        "metallicFactor": 0.0,
        "roughnessFactor": 0.9633075962159529
      }
    },
    {
      "doubleSided": true,
      "name": "Tronco",
      "pbrMetallicRoughness": {
        "baseColorFactor": [
          0.132863,
          0.0181673,
          0.00105262,
          1.0
        ],
        "metallicFactor": 0.0,
        "roughnessFactor": 0.990761478108059
      }
    }
  ],
  "meshes": [
    {
      "name": "Ramas.001_Ramas_0",
      "primitives": [
        {
          "attributes": {
            "NORMAL": 1,
            "POSITION": 0,
            "TEXCOORD_0": 2
          },
          "indices": 3,
          "material": 0,
          "mode": 4
        }
      ]
    },
    {
      "name": "Tronco.001_Tronco_0",
      "primitives": [
        {
          "attributes": {
            "NORMAL": 5,
            "POSITION": 4,
            "TEXCOORD_0": 6
          },
          "indices": 7,
          "material": 1,
          "mode": 4
        }
      ]
    },
    {
      "name": "Ramas_Ramas_0",
      "primitives": [
        {
          "attributes": {
            "NORMAL": 9,
            "POSITION": 8,
            "TEXCOORD_0": 10
          },
          "indices": 11,
          "material": 0,
          "mode": 4
        }
      ]
    },
    {
      "name": "Tronco_Tronco_0",
      "primitives": [
        {
          "attributes": {
            "NORMAL": 13,
            "POSITION": 12,
            "TEXCOORD_0": 14
          },
          "indices": 15,
          "material": 1,
          "mode": 4
        }
      ]
    },
    {
      "name": "Ramas.002_Ramas_0",
      "primitives": [
        {
          "attributes": {
            "NORMAL": 17,
            "POSITION": 16,
            "TEXCOORD_0": 18
          },
          "indices": 19,
          "material": 0,
          "mode": 4
        }
      ]
    },
    {
      "name": "Tronco.002_Tronco_0",
      "primitives": [
        {
          "attributes": {
            "NORMAL": 21,
            "POSITION": 20,
            "TEXCOORD_0": 22
          },
          "indices": 23,
          "material": 1,
          "mode": 4
        }
      ]
    }
  ],
  "nodes": [
    {
      "children": [
        1
      ],
      "matrix": [
        6.453120231628418,
        0.0,
        0.0,
        0.0,
        0.0,
        1.4328805323656586e-15,
        -6.453120231628418,
        0.0,
        0.0,
        6.453120231628418,
        1.4328805323656586e-15,
        0.0,
        0.0,
        0.0,
        0.0,
        1.0
      ],
      "name": "Sketchfab_model"
    },
    {
      "children": [
        2
      ],
      "matrix": [
        0.009999999776482582,
        0.0,
        0.0,
        0.0,
        0.0,
        0.0,
        0.009999999776482582,
        0.0,
        0.0,
        -0.009999999776482582,
        0.0,
        0.0,
        0.0,
        0.0,
        0.0,
        1.0
      ],
      "name": "e4ba1064662049639020ec7ac5be74d5.fbx"
    },
    {
      "children": [
        3,
        5,
        7,
        9,
        11,
        13
      ],
      "name": "RootNode"
    },
    {
      "children": [
        4
      ],
      "matrix": [
        20.381427764892578,
        0.0,
        0.0,
        0.0,
        0.0,
        -3.320556058431835e-06,
        -20.381427764892308,
        0.0,
        0.0,
        20.381427764892308,
        -3.320556058431835e-06,
        0.0,
        33.37583541870117,
        13.734893798828125,
        0.0,
        1.0
      ],
      "name": "Ramas.001"
    },
    {
      "mesh": 0,
      "name": "Ramas.001_Ramas_0"
    },
    {
      "children": [
        6
      ],
      "matrix": [
        3.038034439086914,
        0.0,
        0.0,
        0.0,
        0.0,
        -4.949586348318215e-07,
        -3.038034439086874,
        0.0,
        0.0,
        2.286450147628754,
        -3.7251001144723475e-07,
        0.0,
        33.37583541870117,
        0.0,
        0.0,
        1.0
      ],
      "name": "Tronco.001"
    },
    {
      "mesh": 1,
      "name": "Tronco.001_Tronco_0"
    },
    {
      "children": [
        8
      ],
      "matrix": [
        19.42997315568038,
        2.6247681741080473e-07,
        6.154564416439297,
        0.0,
        6.15456441643926,
        -3.2374145935063665e-06,
        -19.429973155680123,
        0.0,
        7.273760247176826e-07,
        20.38142776489232,
        -3.1655447292626916e-06,
        0.0,
        4.944568634033203,
        13.734893798828125,
        34.61198043823242,
        1.0
      ],
      "name": "Ramas"
    },
    {
      "mesh": 2,
      "name": "Ramas_Ramas_0"
    },
    {
      "children": [
        10
      ],
      "matrix": [
        2.8962122116229483,
        -3.912451702913151e-08,
        0.9173927877261819,
        0.0,
        0.9173927877261824,
        2.169723096681991e-07,
        -2.8962122116229403,
        0.0,
        -2.1239248017245077e-08,
        2.286450147628778,
        1.6456378249627043e-07,
        0.0,
        4.944568634033203,
        0.0,
        34.61198043823242,
        1.0
      ],
      "name": "Tronco"
    },
    {
      "mesh": 3,
      "name": "Tronco_Tronco_0"
    },
    {
      "children": [
        12
      ],
      "matrix": [
        17.326870145987726,
        -4.702961060416513e-07,
        10.732291970061194,
        0.0,
        10.732291970061153,
        -1.182202642454484e-06,
        -17.326870145987716,
        0.0,
        1.0223281533183528e-06,
        20.38142776489254,
        -7.573816526354057e-07,
        0.0,
        -15.80369758605957,
        13.734893798828125,
        0.0,
        1.0
      ],
      "name": "Ramas.002"
    },
    {
      "mesh": 4,
      "name": "Ramas.002_Ramas_0"
    },
    {
      "children": [
        14
      ],
      "matrix": [
        2.0636314834021885,
        9.8400628944988e-08,
        1.2782165770834981,
        0.0,
        1.599744282157135,
        -5.6515722328716836e-08,
        -2.5827255922346244,
        0.0,
        -5.639766379186771e-08,
        2.286450147628782,
        -8.496536470325722e-08,
        0.0,
        -15.80369758605957,
        0.0,
        0.0,
        1.0
      ],
      "name": "Tronco.002"
    },
    {
      "mesh": 5,
      "name": "Tronco.002_Tronco_0"
    }
  ],
  "scene": 0,
  "scenes": [
    {
      "name": "Sketchfab_Scene",
      "nodes": [
        0
      ]
    }
  ]
}
